<?xml version="1.0" standalone="no"?>
<!DOCTYPE svg PUBLIC "-//W3C//DTD SVG 20010904//EN"
 "http://www.w3.org/TR/2001/REC-SVG-20010904/DTD/svg10.dtd">
<svg version="1.0" xmlns="http://www.w3.org/2000/svg"
 width="96.000000pt" height="96.000000pt" viewBox="0 0 96.000000 96.000000"
 preserveAspectRatio="xMidYMid meet">

<g transform="translate(0.000000,96.000000) scale(0.100000,-0.100000)"
fill="#000000" stroke="none">
<path d="M886 879 c-27 -15 -35 -24 -27 -32 13 -13 91 20 91 40 0 18 -18 16
-64 -8z"/>
<path d="M50 661 c-40 -5 -45 -9 -48 -34 l-3 -28 68 7 c74 7 93 16 93 45 0 20
-19 22 -110 10z"/>
<path d="M180 108 c0 -20 -4 -26 -15 -22 -9 4 -15 1 -15 -7 0 -7 -7 -3 -16 10
-13 18 -18 20 -25 10 -18 -29 15 -79 53 -79 21 0 58 34 58 54 0 8 -9 24 -20
37 l-19 24 -1 -27z"/>
<path d="M640 108 c0 -20 -4 -26 -15 -22 -9 4 -15 1 -15 -7 0 -7 -7 -3 -16 10
-13 18 -18 20 -25 10 -18 -29 15 -79 53 -79 21 0 58 34 58 54 0 8 -9 24 -20
37 l-19 24 -1 -27z"/>
</g>
</svg>
